<?xml version="1.0" encoding="iso-8859-1"?>
<!-- Generator: Adobe Illustrator 19.0.0, SVG Export Plug-In . SVG Version: 6.00 Build 0)  -->
<svg version="1.1" id="Capa_1" xmlns="http://www.w3.org/2000/svg" xmlns:xlink="http://www.w3.org/1999/xlink" x="0px" y="0px"
	 viewBox="0 0 512 512" style="enable-background:new 0 0 512 512;" xml:space="preserve">
<path style="fill:#9AADAF;" d="M504.608,133.244v6.482H7.392v-6.482c0-11.36,1.668-22.658,4.95-33.533l11.361-37.645
	c2.332-7.726,9.449-13.013,17.52-13.013h429.554c8.07,0,15.188,5.287,17.52,13.013l11.362,37.645
	C502.94,110.586,504.608,121.884,504.608,133.244z"/>
<path style="fill:#8A9FA0;" d="M499.658,99.711l-11.362-37.645c-2.332-7.726-9.449-13.013-17.52-13.013h-47.964
	c8.07,0,15.188,5.287,17.52,13.013l11.361,37.645c3.282,10.875,4.95,22.173,4.95,33.533v6.482h47.964v-6.482
	C504.608,121.884,502.941,110.586,499.658,99.711z"/>
<path style="fill:#DFEAEF;" d="M481.608,462.946H30.392c-12.703,0-23.001-10.298-23.001-23.001V130.848
	c0-12.703,10.298-23.001,23.001-23.001h451.215c12.703,0,23.001,10.298,23.001,23.001v309.098
	C504.608,452.648,494.311,462.946,481.608,462.946z"/>
<path style="fill:#BFCFD6;" d="M481.608,107.847h-27.971v324.106c0,5.414-4.389,9.804-9.803,9.804H30.392
	c-12.703,0-23.001-10.298-23.001-23.001v21.19c0,12.703,10.298,23.001,23.001,23.001h400.244h50.971
	c12.703,0,23.001-10.298,23.001-23.001v-21.19V130.848C504.608,118.145,494.311,107.847,481.608,107.847z"/>
<circle style="fill:#435256;" cx="337.41" cy="289.54" r="132.38"/>
<path style="fill:#FC5F61;" d="M150.522,157.157H51.4c-5.076,0-9.191,4.115-9.191,9.191v99.122c0,5.076,4.115,9.191,9.191,9.191
	h99.122c5.076,0,9.191-4.115,9.191-9.191v-99.122C159.713,161.271,155.598,157.157,150.522,157.157z"/>
<path style="fill:#9AADAF;" d="M135.392,354.283H66.53c-2.256,0-4.404,0.965-5.903,2.651L44.204,375.41
	c-1.285,1.446-1.995,3.313-1.995,5.247v33.893c0,4.362,3.536,7.898,7.898,7.898h101.708c4.362,0,7.898-3.536,7.898-7.898v-33.893
	c0-1.934-0.71-3.801-1.995-5.247l-16.423-18.476C139.796,355.247,137.648,354.283,135.392,354.283z"/>
<path d="M79.402,373.672c-4.082,0-7.392,3.309-7.392,7.392v18.643c0,4.082,3.309,7.392,7.392,7.392s7.392-3.309,7.392-7.392v-18.643
	C86.794,376.98,83.484,373.672,79.402,373.672z"/>
<path d="M122.52,373.672c-4.082,0-7.392,3.309-7.392,7.392v18.643c0,4.082,3.309,7.392,7.392,7.392s7.392-3.309,7.392-7.392v-18.643
	C129.912,376.98,126.603,373.672,122.52,373.672z"/>
<circle cx="212.64" cy="154.94" r="7.61"/>
<circle cx="467.06" cy="154.94" r="7.61"/>
<circle cx="212.64" cy="425.84" r="7.61"/>
<circle cx="467.06" cy="425.84" r="7.61"/>
<path d="M337.41,149.765c-77.071,0-139.773,62.702-139.773,139.773S260.339,429.31,337.41,429.31s139.773-62.702,139.773-139.773
	S414.481,149.765,337.41,149.765z M344.802,207.069c39.775,3.537,71.539,35.302,75.076,75.077h-30.353
	c-3.265-23.123-21.6-41.458-44.723-44.723V207.069z M419.878,296.928c-3.537,39.775-35.301,71.54-75.076,75.077v-30.354
	c23.122-3.265,41.458-21.6,44.723-44.723H419.878z M330.018,164.773v27.444c-47.936,3.607-86.323,41.993-89.93,89.929h-27.444
	C216.34,219.102,266.973,168.468,330.018,164.773z M330.018,207.069v30.354c-23.123,3.265-41.458,21.6-44.723,44.723h-30.354
	C258.478,242.371,290.243,210.606,330.018,207.069z M330.018,414.302c-63.045-3.696-113.678-54.329-117.374-117.373h27.444
	c3.607,47.936,41.993,86.322,89.93,89.929V414.302z M330.018,372.006c-39.776-3.537-71.54-35.301-75.077-75.077h30.354
	c3.265,23.123,21.6,41.458,44.723,44.723V372.006z M299.55,289.538c0-20.876,16.985-37.86,37.86-37.86
	c20.876,0,37.86,16.984,37.86,37.86s-16.985,37.86-37.86,37.86C316.534,327.398,299.55,310.414,299.55,289.538z M344.802,414.302
	v-27.444c47.936-3.607,86.322-41.993,89.929-89.929h27.445C458.479,359.974,407.846,410.607,344.802,414.302z M434.73,282.146
	c-3.607-47.936-41.992-86.322-89.929-89.929v-27.444c63.044,3.696,113.677,54.329,117.373,117.373H434.73z"/>
<path d="M481.607,100.456H30.392C13.634,100.456,0,114.09,0,130.848v309.098c0,16.758,13.634,30.392,30.392,30.392h451.215
	c16.758,0,30.393-13.634,30.393-30.392V130.848C512,114.09,498.366,100.456,481.607,100.456z M497.217,439.946
	c0,8.607-7.002,15.609-15.609,15.609H30.392c-8.607,0-15.609-7.002-15.609-15.609V130.848c0-8.607,7.002-15.609,15.609-15.609
	h451.215c8.607,0,15.609,7.002,15.609,15.609v309.098H497.217z"/>
<path d="M17.95,81.127c0.712,0.215,1.431,0.317,2.139,0.317c3.174,0,6.109-2.062,7.074-5.258l3.617-11.983
	c1.4-4.64,5.597-7.757,10.443-7.757h429.555c4.846,0,9.042,3.117,10.443,7.757l3.346,11.084c1.179,3.908,5.302,6.116,9.212,4.94
	c3.909-1.18,6.12-5.304,4.94-9.212l-3.345-11.083c-3.297-10.927-13.182-18.269-24.596-18.269H41.223
	c-11.413,0-21.298,7.342-24.596,18.269L13.01,71.914C11.83,75.822,14.042,79.947,17.95,81.127z"/>
<path d="M150.522,149.765H51.4c-9.144,0-16.583,7.439-16.583,16.583v99.122c0,9.144,7.439,16.583,16.583,16.583h99.122
	c9.143,0,16.582-7.439,16.582-16.583v-99.122C167.104,157.204,159.666,149.765,150.522,149.765z M152.321,265.469
	c0,0.992-0.807,1.799-1.799,1.799H51.4c-0.992,0-1.799-0.807-1.799-1.799v-99.122c0-0.992,0.807-1.799,1.799-1.799h99.122
	c0.992,0,1.799,0.807,1.799,1.799V265.469z"/>
<path d="M146.82,352.023c-2.898-3.262-7.064-5.133-11.428-5.133H66.53c-4.364,0-8.53,1.871-11.428,5.132l-16.423,18.476
	c-2.49,2.802-3.861,6.409-3.861,10.158v33.893c0,8.431,6.859,15.29,15.29,15.29h101.707c8.431,0,15.29-6.859,15.29-15.29v-33.893
	c0-3.749-1.372-7.356-3.862-10.158L146.82,352.023z M152.321,414.549c0,0.279-0.227,0.506-0.506,0.506H50.107
	c-0.279,0-0.506-0.227-0.506-0.506v-33.893c0-0.125,0.045-0.244,0.128-0.336l16.423-18.476c0.096-0.108,0.234-0.169,0.378-0.169
	h68.862c0.144,0,0.282,0.062,0.378,0.17l16.423,18.475c0.083,0.093,0.128,0.212,0.128,0.337L152.321,414.549L152.321,414.549z"/>
<path d="M116.976,207.125h-16.015l20.126-23.071c2.672-3.087,2.335-7.755-0.752-10.426c-3.087-2.671-7.755-2.334-10.426,0.752
	l-30.552,35.3c-1.893,2.188-2.336,5.279-1.134,7.91s3.83,4.319,6.723,4.319h16.015l-21.672,25.934
	c-2.628,3.124-2.225,7.787,0.899,10.415c1.386,1.166,3.075,1.735,4.754,1.735c2.106,0,4.199-0.896,5.661-2.634l32.031-38.083
	c1.85-2.2,2.257-5.272,1.044-7.878C122.464,208.791,119.851,207.125,116.976,207.125z"/>
<g>
</g>
<g>
</g>
<g>
</g>
<g>
</g>
<g>
</g>
<g>
</g>
<g>
</g>
<g>
</g>
<g>
</g>
<g>
</g>
<g>
</g>
<g>
</g>
<g>
</g>
<g>
</g>
<g>
</g>
</svg>
