<?xml version="1.0" encoding="iso-8859-1"?>
<!-- Generator: Adobe Illustrator 19.0.0, SVG Export Plug-In . SVG Version: 6.00 Build 0)  -->
<svg version="1.1" id="Capa_1" xmlns="http://www.w3.org/2000/svg" xmlns:xlink="http://www.w3.org/1999/xlink" x="0px" y="0px"
	 viewBox="0 0 512 512" style="enable-background:new 0 0 512 512;" xml:space="preserve">
<path style="fill:#EC3E42;" d="M423.213,504.498H88.787c-15.495,0-28.057-12.561-28.057-28.057V35.559
	c0-15.495,12.561-28.057,28.057-28.057h334.427c15.495,0,28.057,12.561,28.057,28.057v440.883
	C451.27,491.937,438.708,504.498,423.213,504.498z"/>
<path style="fill:#D8353D;" d="M423.213,7.502h-52.211c15.495,0,28.057,12.561,28.057,28.056v440.883
	c0,15.495-12.561,28.056-28.057,28.056h52.211c15.495,0,28.057-12.561,28.057-28.056V35.558
	C451.27,20.063,438.708,7.502,423.213,7.502z"/>
<circle style="fill:#DFEAEF;" cx="256" cy="225.33" r="134.03"/>
<g>
	<path style="fill:#9EBECC;" d="M256,91.293c-8.934,0-17.661,0.882-26.105,2.549c61.527,12.147,107.927,66.393,107.927,131.483
		s-46.401,119.336-107.927,131.484c8.445,1.667,17.172,2.549,26.105,2.549c74.024,0,134.033-60.008,134.033-134.033
		C390.033,151.302,330.024,91.293,256,91.293z"/>
	<circle style="fill:#9EBECC;" cx="256" cy="225.33" r="20"/>
</g>
<g>
	<circle style="fill:#DFEAEF;" cx="114.63" cy="61.953" r="20.39"/>
	<circle style="fill:#DFEAEF;" cx="397.37" cy="61.953" r="20.39"/>
	<circle style="fill:#DFEAEF;" cx="114.63" cy="450.05" r="20.39"/>
	<circle style="fill:#DFEAEF;" cx="397.37" cy="450.05" r="20.39"/>
</g>
<path style="fill:#FFFCFD;" d="M155.334,407.61L155.334,407.61c-13.223-16.535-8.497-40.979,9.938-51.393l102.53-57.922
	c6.548-3.699,14.813-2.101,19.511,3.773l0,0c4.697,5.874,4.439,14.288-0.61,19.863l-79.048,87.285
	C193.442,424.91,168.557,424.146,155.334,407.61z"/>
<path d="M193.985,462.05h124.03c4.144,0,7.502-3.359,7.502-7.502s-3.358-7.502-7.502-7.502h-124.03
	c-4.144,0-7.502,3.359-7.502,7.502C186.483,458.692,189.841,462.05,193.985,462.05z"/>
<path d="M451.269,173.811c-4.144,0-7.502,3.359-7.502,7.502v295.129c0,11.334-9.22,20.555-20.554,20.555H88.786
	c-11.334,0-20.554-9.221-20.554-20.555v-87.81c0-4.143-3.358-7.502-7.502-7.502s-7.502,3.359-7.502,7.502v87.81
	C53.229,496.048,69.18,512,88.786,512h334.427c19.606,0,35.557-15.952,35.557-35.558V181.313
	C458.771,177.17,455.413,173.811,451.269,173.811z"/>
<path d="M423.214,0H88.786C69.18,0,53.229,15.952,53.229,35.558v313.063c0,4.143,3.358,7.502,7.502,7.502
	c4.144,0,7.502-3.359,7.502-7.502V35.558c0-11.334,9.22-20.555,20.554-20.555h334.427c11.334,0,20.554,9.221,20.554,20.555v105.745
	c0,4.143,3.358,7.502,7.502,7.502s7.502-3.359,7.502-7.502V35.558C458.771,15.952,442.82,0,423.214,0z"/>
<path d="M141.065,378.194c-2.334,12.07,0.732,24.5,8.41,34.101c7.678,9.601,19.129,15.325,31.417,15.702
	c0.433,0.013,0.863,0.02,1.294,0.02c11.818,0,23.066-4.973,31.029-13.765l79.049-87.286c7.559-8.347,7.94-20.789,0.907-29.584
	c-7.033-8.794-19.255-11.157-29.059-5.619l-102.531,57.922C150.877,355.733,143.399,366.124,141.065,378.194z M168.96,362.749
	l102.532-57.922c1.219-0.689,2.547-1.021,3.859-1.021c2.306,0,4.566,1.026,6.102,2.947c2.411,3.015,2.28,7.28-0.312,10.142
	l-79.049,87.285c-5.295,5.848-12.837,9.063-20.74,8.821c-7.886-0.242-15.233-3.915-20.16-10.076
	c-4.927-6.161-6.894-14.137-5.397-21.883S162.092,366.629,168.96,362.749z"/>
<path d="M256,83.791c-78.042,0-141.535,63.492-141.535,141.535c0,35.943,13.493,70.209,37.993,96.485
	c2.826,3.029,7.571,3.197,10.602,0.371c3.031-2.825,3.197-7.572,0.371-10.603c-21.901-23.489-33.962-54.121-33.962-86.253
	c0-69.769,56.762-126.531,126.531-126.531s126.531,56.761,126.531,126.531c0,50.754-30.158,96.442-76.829,116.399
	c-3.81,1.629-5.578,6.038-3.949,9.847c1.218,2.848,3.988,4.554,6.902,4.554c0.984,0,1.984-0.195,2.945-0.606
	c52.203-22.321,85.935-73.425,85.935-130.194C397.535,147.283,334.042,83.791,256,83.791z"/>
<path d="M283.507,225.326c0-15.167-12.34-27.507-27.507-27.507c-15.167,0-27.507,12.339-27.507,27.507
	c0,15.167,12.34,27.507,27.507,27.507C271.167,252.833,283.507,240.493,283.507,225.326z M243.497,225.326
	c0-6.894,5.609-12.503,12.503-12.503c6.894,0,12.503,5.609,12.503,12.503c0,6.894-5.609,12.503-12.503,12.503
	C249.106,237.829,243.497,232.22,243.497,225.326z"/>
<path d="M114.632,34.061c-15.38,0-27.893,12.512-27.893,27.892s12.513,27.892,27.893,27.892s27.892-12.512,27.892-27.892
	S130.012,34.061,114.632,34.061z M114.632,74.841c-7.107,0-12.889-5.782-12.889-12.888s5.782-12.888,12.889-12.888
	c7.106,0,12.888,5.782,12.888,12.888S121.739,74.841,114.632,74.841z"/>
<path d="M397.368,34.061c-15.38,0-27.892,12.512-27.892,27.892s12.512,27.892,27.892,27.892s27.893-12.512,27.893-27.892
	S412.747,34.061,397.368,34.061z M397.368,74.841c-7.106,0-12.888-5.782-12.888-12.888s5.782-12.888,12.888-12.888
	c7.107,0,12.889,5.782,12.889,12.888S404.475,74.841,397.368,74.841z"/>
<path d="M114.632,477.939c15.38,0,27.892-12.512,27.892-27.892s-12.512-27.892-27.892-27.892S86.74,434.668,86.74,450.047
	S99.253,477.939,114.632,477.939z M114.632,437.159c7.106,0,12.888,5.782,12.888,12.888c0,7.107-5.782,12.888-12.888,12.888
	c-7.107,0-12.889-5.782-12.889-12.888C101.744,442.941,107.525,437.159,114.632,437.159z"/>
<path d="M397.368,422.155c-15.38,0-27.892,12.512-27.892,27.892s12.512,27.892,27.892,27.892s27.893-12.512,27.893-27.892
	S412.747,422.155,397.368,422.155z M397.368,462.936c-7.106,0-12.888-5.782-12.888-12.888c0-7.107,5.782-12.888,12.888-12.888
	c7.107,0,12.889,5.782,12.889,12.888C410.256,457.154,404.475,462.936,397.368,462.936z"/>
<g>
</g>
<g>
</g>
<g>
</g>
<g>
</g>
<g>
</g>
<g>
</g>
<g>
</g>
<g>
</g>
<g>
</g>
<g>
</g>
<g>
</g>
<g>
</g>
<g>
</g>
<g>
</g>
<g>
</g>
</svg>
