<svg height="512" viewBox="0 0 512 512" width="512" xmlns="http://www.w3.org/2000/svg"><g id="filled_outline" data-name="filled outline"><path d="m488 200-288 288-14.34-14.34-11.32-11.32-112.68-112.68-11.32-11.32-26.34-26.34 16-16h24v-24h24v-24h24v-24h24v-24h24v-24h24v-24h24v-24h24v-24l80-80z" fill="#02c26a"/><g fill="#ffc431"><path d="m308.615 50.858h36.77v28.284h-36.77z" transform="matrix(.707 -.707 .707 .707 49.814 250.262)"/><path d="m348.615 90.858h36.77v28.284h-36.77z" transform="matrix(.707 -.707 .707 .707 33.246 290.262)"/><path d="m388.615 130.858h36.77v28.284h-36.77z" transform="matrix(.707 -.707 .707 .707 16.677 330.262)"/><path d="m428.615 170.858h36.77v28.284h-36.77z" transform="matrix(.707 -.707 .707 .707 .109 370.262)"/></g><path d="m201.775 240.402h124.451v79.196h-124.451z" fill="#8098ab" transform="matrix(.707 -.707 .707 .707 -120.666 268.686)"/><path d="m229.373 195.029h45.255v33.941h-45.255z" fill="#718799" transform="matrix(.707 -.707 .707 .707 -76.098 240.284)"/><path d="m295.029 135.029h33.941v33.941h-33.941z" fill="#718799" transform="matrix(.707 -.707 .707 .707 -16.098 265.137)"/><path d="m131.716 309.088h56.569v101.823h-56.569z" fill="#718799" transform="matrix(.707 -.707 .707 .707 -207.696 218.579)"/><path d="m341.65686 258.34326-56-56-24-24a8 8 0 0 0 -11.31348 0l-32 32a7.99915 7.99915 0 0 0 0 11.31348l18.34327 18.34326-50.34327 50.34326a7.99915 7.99915 0 0 0 0 11.31348l56 56a7.99945 7.99945 0 0 0 11.31348 0l88-88a7.99915 7.99915 0 0 0 0-11.31348zm-106.34326-42.34326 20.68652-20.68652 12.68653 12.68652-20.68653 20.68652zm12.68652 124.68652-44.68652-44.68652 50.34326-50.34326 26.34326-26.34326 44.68653 44.68652z"/><path d="m317.65686 18.34326a8 8 0 0 0 -11.31348 0l-80 80a7.99881 7.99881 0 0 0 -2.34326 5.65674v16h-16a7.99977 7.99977 0 0 0 -8 8v16h-16a7.99977 7.99977 0 0 0 -8 8v16h-16a7.99977 7.99977 0 0 0 -8 8v16h-16a7.99977 7.99977 0 0 0 -8 8v16h-16a7.99977 7.99977 0 0 0 -8 8v16h-16a7.99977 7.99977 0 0 0 -8 8v16h-16a7.99977 7.99977 0 0 0 -8 8v16h-16a7.99877 7.99877 0 0 0 -5.65674 2.34326l-16 16a7.99915 7.99915 0 0 0 0 11.31348l176 176a7.99945 7.99945 0 0 0 11.31348 0l288-288a7.99915 7.99915 0 0 0 0-11.31348zm141.02979 163.65674-14.68653 14.68652-8.68652-8.68652 14.68652-14.68652zm-40-40-14.68653 14.68652-8.68652-8.68652 14.68652-14.68652zm-40-40-14.68653 14.68652-8.68652-8.68652 14.68652-14.68652zm-40-40-14.68653 14.68652-8.68652-8.68652 14.68652-14.68652zm-138.68653 414.68652-8.68652-8.68652 30.34326-30.34326-11.31348-11.31348-30.34326 30.34326-112.68652-112.68652 26.34326-26.34326-11.31348-11.31348-26.34326 26.34326-20.68652-20.68652 8-8h20.68652a7.99977 7.99977 0 0 0 8-8v-16h16a7.99977 7.99977 0 0 0 8-8v-16h16a7.99977 7.99977 0 0 0 8-8v-16h16a7.99977 7.99977 0 0 0 8-8v-16h16a7.99977 7.99977 0 0 0 8-8v-16h16a7.99977 7.99977 0 0 0 8-8v-16h16a7.99977 7.99977 0 0 0 8-8v-16h16a7.99977 7.99977 0 0 0 8-8v-20.68652l72-72 6.68653 6.68652-20.34327 20.34326a7.99915 7.99915 0 0 0 0 11.31348l20 20a7.99945 7.99945 0 0 0 11.31348 0l20.34326-20.34326 8.68653 8.68652-20.34327 20.34326a7.99915 7.99915 0 0 0 0 11.31348l20 20a7.99945 7.99945 0 0 0 11.31348 0l20.34326-20.34326 8.68653 8.68652-20.34327 20.34326a7.99915 7.99915 0 0 0 0 11.31348l20 20a7.99945 7.99945 0 0 0 11.31348 0l20.34326-20.34326 8.68653 8.68652-20.34327 20.34326a7.99915 7.99915 0 0 0 0 11.31348l20 20a7.99945 7.99945 0 0 0 11.31348 0l20.34326-20.34326 6.68653 6.68652z"/><path d="m100.686 280h22.627v16h-22.627z" transform="matrix(.707 -.707 .707 .707 -170.843 163.549)"/><path d="m132.686 248h22.627v16h-22.627z" transform="matrix(.707 -.707 .707 .707 -138.843 176.804)"/><path d="m164.686 216h22.627v16h-22.627z" transform="matrix(.707 -.707 .707 .707 -106.843 190.059)"/><path d="m196.686 184h22.627v16h-22.627z" transform="matrix(.707 -.707 .707 .707 -74.843 203.314)"/><path d="m228.686 152h22.627v16h-22.627z" transform="matrix(.707 -.707 .707 .707 -42.843 216.569)"/><path d="m260.686 120h22.627v16h-22.627z" transform="matrix(.707 -.707 .707 .707 -10.843 229.823)"/><path d="m228.686 400h22.627v16h-22.627z" transform="matrix(.707 -.707 .707 .707 -218.205 289.206)"/><path d="m260.686 368h22.627v16h-22.627z" transform="matrix(.707 -.707 .707 .707 -186.205 302.461)"/><path d="m292.686 336h22.627v16h-22.627z" transform="matrix(.707 -.707 .707 .707 -154.205 315.716)"/><path d="m324.686 304h22.627v16h-22.627z" transform="matrix(.707 -.707 .707 .707 -122.205 328.971)"/><path d="m356.686 272h22.627v16h-22.627z" transform="matrix(.707 -.707 .707 .707 -90.205 342.225)"/><path d="m388.686 240h22.627v16h-22.627z" transform="matrix(.707 -.707 .707 .707 -58.205 355.48)"/><path d="m282.34338 157.65674 24 24a7.99945 7.99945 0 0 0 11.31348 0l24-24a7.99915 7.99915 0 0 0 0-11.31348l-24-24a8 8 0 0 0 -11.31348 0l-24 24a7.99915 7.99915 0 0 0 0 11.31348zm29.65674-18.34326 12.68653 12.68652-12.68653 12.68652-12.68652-12.68652z"/><path d="m352 172.686h16v22.627h-16z" transform="matrix(.707 -.707 .707 .707 -24.666 308.451)"/><path d="m328 196.686h16v22.627h-16z" transform="matrix(.707 -.707 .707 .707 -48.666 298.51)"/><path d="m153.373 264h45.255v16h-45.255z" transform="matrix(.707 -.707 .707 .707 -140.784 204.118)"/><path d="m149.65686 298.34326a8 8 0 0 0 -11.31348 0l-40 40a7.99915 7.99915 0 0 0 0 11.31348l72 72a7.99945 7.99945 0 0 0 11.31348 0l40-40a7.99915 7.99915 0 0 0 0-11.31348zm26.34326 106.34274-60.68603-60.686 28.686-28.686 60.68607 60.686z"/></g></svg>