<?xml version="1.0" encoding="UTF-8" standalone="no"?>
<svg
   xmlns:dc="http://purl.org/dc/elements/1.1/"
   xmlns:cc="http://creativecommons.org/ns#"
   xmlns:rdf="http://www.w3.org/1999/02/22-rdf-syntax-ns#"
   xmlns:svg="http://www.w3.org/2000/svg"
   xmlns="http://www.w3.org/2000/svg"
   height="520"
   width="520"
   version="1.1"
   id="svg8">
  <metadata
     id="metadata14">
    <rdf:RDF>
      <cc:Work
         rdf:about="">
        <dc:format>image/svg+xml</dc:format>
        <dc:type
           rdf:resource="http://purl.org/dc/dcmitype/StillImage" />
        <dc:title></dc:title>
      </cc:Work>
    </rdf:RDF>
  </metadata>
  <defs
     id="defs12" />
  <path d="m345.1,326.2l137.4,-137.4c24.6,-24.6 24.6,-64.6 0,-89.2l-70.2,-70.2c-24.6,-24.6 -64.6,-24.6 -89.2,0l-137.3,137.5c-47.2,-2.3 -92.8,15.3 -126.4,49.1c-64.4,64.7 -64.6,170.3 -0.5,235.3l0.9,0.9l0.9,0.9c65,64.1 170.6,63.9 235.3,-0.5c33.8,-33.6 51.4,-79.2 49.1,-126.4zm-255.8,97.8l-0.7,-0.7l-0.7,-0.7c-48.4,-49.1 -48.3,-128.9 0.4,-177.8c27.1,-27.3 64.7,-40.6 103.1,-36.6c6.1,0.7 12.2,-1.5 16.6,-5.9l144.1,-144c8.6,-8.6 22.7,-8.6 31.4,0l70.2,70.2c8.6,8.6 8.6,22.7 0,31.4l-16.6,16.6l-29,28.9l-31,31l-29,29l-38.5,38.5c-4.4,4.4 -6.5,10.5 -5.9,16.6c4.1,38.4 -9.3,75.9 -36.6,103.1c-48.9,48.6 -128.6,48.8 -177.8,0.4z" id="svg_1" transform="rotate(-90 255.9560699462891,255.99392700195315) "/>
  <ellipse fill="#f4802e" stroke="null" stroke-width="null" cx="333" cy="334.5" id="svg_2" rx="81.5" ry="81.5"/>
  <line fill="none" stroke="#f4802e" stroke-width="70" x1="158.5" y1="302" x2="302.670038" y2="157.829962" id="svg_5" stroke-linejoin="null" stroke-linecap="null" transform="rotate(-90 230.58502197265628,229.91497802734375) "/>
</svg>
