<?xml version="1.0" encoding="iso-8859-1"?>
<!-- Generator: Adobe Illustrator 19.0.0, SVG Export Plug-In . SVG Version: 6.00 Build 0)  -->
<svg version="1.1" id="Capa_1" xmlns="http://www.w3.org/2000/svg" xmlns:xlink="http://www.w3.org/1999/xlink" x="0px" y="0px"
	 viewBox="0 0 512 512" style="enable-background:new 0 0 512 512;" xml:space="preserve">
<path style="fill:#35E5E5;" d="M373.847,364.827h-43.521l7.599-295.205c0.198-7.679,6.48-13.802,14.162-13.802l0,0
	c7.682,0,13.964,6.123,14.162,13.802L373.847,364.827z"/>
<path style="fill:#28CEC9;" d="M373.847,364.827l-7.599-295.205c-0.198-7.679-6.48-13.802-14.162-13.802l0,0v309.007H373.847z"/>
<path style="fill:#9EBECC;" d="M504.489,383.737v21.373H7.511v-21.373c0-1.478,0.217-2.948,0.644-4.363l15.66-51.886
	c2.331-7.722,9.445-13.006,17.511-13.006h429.348c8.066,0,15.181,5.284,17.511,13.006l15.66,51.886
	C504.272,380.789,504.489,382.259,504.489,383.737z"/>
<path style="fill:#86AEBC;" d="M503.845,379.374l-15.66-51.886c-2.331-7.722-9.445-13.006-17.511-13.006h-49.075
	c8.066,0,15.181,5.284,17.511,13.006l15.66,51.886c0.427,1.415,0.644,2.885,0.644,4.363v21.373h49.075v-21.373
	C504.489,382.259,504.272,380.789,503.845,379.374z"/>
<path style="fill:#DFEAEF;" d="M484.121,503.183H27.879c-11.249,0-20.368-9.119-20.368-20.368v-98.664
	c0-11.249,9.119-20.368,20.368-20.368h456.242c11.249,0,20.368,9.119,20.368,20.368v98.664
	C504.489,494.064,495.37,503.183,484.121,503.183z"/>
<path style="fill:#BFCFD6;" d="M484.121,363.783h-33.835c1.222,2.616,1.924,5.522,1.924,8.6v98.664
	c0,11.249-9.119,20.368-20.368,20.368H9.435c3.244,6.945,10.272,11.768,18.444,11.768h456.242c11.249,0,20.368-9.119,20.368-20.368
	v-98.664C504.489,372.902,495.37,363.783,484.121,363.783z"/>
<g>
	<circle style="fill:#35E5E5;" cx="441.07" cy="430.98" r="27.06"/>
	<circle style="fill:#35E5E5;" cx="362.97" cy="430.98" r="27.06"/>
	<circle style="fill:#35E5E5;" cx="284.86" cy="430.98" r="27.06"/>
</g>
<path style="fill:#FEC573;" d="M187.214,458.036H51.882c-5.723,0-10.363-4.64-10.363-10.363v-32.199
	c0-5.723,4.64-10.363,10.363-10.363h135.332c5.723,0,10.363,4.64,10.363,10.363v32.199
	C197.577,453.396,192.937,458.036,187.214,458.036z"/>
<path style="fill:#FC9F3D;" d="M190.97,430.386H48.126c-3.649,0-6.607-2.958-6.607-6.607v23.894c0,5.723,4.64,10.363,10.363,10.363
	h135.332c5.723,0,10.363-4.64,10.363-10.363v-23.894C197.577,427.428,194.619,430.386,190.97,430.386z"/>
<path d="M438.807,75.45c0,23.164-9.021,44.942-25.4,61.321c-2.934,2.933-2.934,7.69,0,10.623c1.467,1.467,3.389,2.2,5.311,2.2
	s3.845-0.734,5.311-2.2c19.217-19.217,29.801-44.767,29.801-71.944s-10.583-52.728-29.8-71.945c-2.933-2.933-7.69-2.933-10.623,0
	c-2.934,2.933-2.934,7.69,0,10.623C429.787,30.508,438.807,52.286,438.807,75.45z"/>
<path d="M285.453,149.594c1.922,0,3.845-0.734,5.311-2.2c2.934-2.933,2.934-7.69,0-10.623c-33.812-33.813-33.812-88.83,0-122.643
	c2.934-2.933,2.934-7.69,0-10.623c-2.933-2.933-7.69-2.933-10.623,0c-39.67,39.67-39.67,104.218,0,143.888
	C281.609,148.861,283.531,149.594,285.453,149.594z"/>
<path d="M387.491,121.478c1.467,1.467,3.389,2.2,5.311,2.2s3.845-0.734,5.311-2.2c25.38-25.38,25.38-66.676,0-92.056
	c-2.933-2.933-7.69-2.933-10.623,0c-2.934,2.933-2.934,7.69,0,10.623c19.523,19.523,19.523,51.288,0,70.811
	C384.558,113.788,384.558,118.544,387.491,121.478z"/>
<path d="M306.058,121.478c1.467,1.467,3.389,2.2,5.311,2.2s3.845-0.734,5.311-2.2c2.934-2.933,2.934-7.69,0-10.623
	c-9.457-9.457-14.666-22.031-14.666-35.405s5.208-25.948,14.666-35.405c2.934-2.933,2.934-7.69,0-10.623
	c-2.933-2.934-7.689-2.934-10.623,0c-12.295,12.294-19.066,28.641-19.066,46.028S293.763,109.183,306.058,121.478z"/>
<path d="M332.464,281.763c0.066,0.001,0.131,0.002,0.197,0.002c4.058,0,7.4-3.237,7.505-7.318l5.267-204.632
	c0.093-3.635,3.016-6.484,6.653-6.484c3.637,0,6.559,2.848,6.653,6.484l5.267,204.632c0.105,4.081,3.447,7.318,7.505,7.318
	c0.066,0,0.132-0.001,0.197-0.002c4.147-0.107,7.423-3.555,7.316-7.702l-5.267-204.632c-0.305-11.843-9.824-21.12-21.671-21.12
	c-11.847,0-21.366,9.277-21.671,21.12l-5.267,204.632C325.041,278.208,328.316,281.657,332.464,281.763z"/>
<path d="M510.039,373.9l-14.662-48.581c-3.312-10.974-13.239-18.348-24.702-18.348H41.326c-11.463,0-21.39,7.374-24.702,18.348
	L1.961,373.9C0.701,377.075,0,380.532,0,384.151v98.664c0,15.373,12.506,27.879,27.879,27.879h456.242
	c15.373,0,27.879-12.506,27.879-27.879v-98.664C512,380.532,511.299,377.075,510.039,373.9z M496.977,482.815
	c0,7.089-5.767,12.856-12.856,12.856H27.879c-7.089,0-12.856-5.767-12.856-12.856v-98.664c0-1.77,0.36-3.457,1.009-4.992
	c0.006-0.014,0.013-0.026,0.018-0.04c0.148-0.348,0.314-0.686,0.491-1.018c0.031-0.059,0.065-0.116,0.097-0.175
	c0.175-0.315,0.36-0.623,0.56-0.92c0.013-0.019,0.025-0.039,0.038-0.058c1.373-2.023,3.308-3.633,5.578-4.61
	c0.04-0.017,0.079-0.034,0.119-0.051c0.724-0.303,1.483-0.54,2.267-0.707c0.09-0.019,0.182-0.034,0.273-0.051
	c0.295-0.056,0.594-0.101,0.895-0.137c0.11-0.013,0.219-0.027,0.33-0.037c0.389-0.036,0.782-0.06,1.181-0.06h22.932
	c4.148,0,7.512-3.363,7.512-7.512c0-4.148-3.363-7.512-7.512-7.512H27.879c-0.457,0-0.911,0.013-1.364,0.035
	c-0.139,0.007-0.277,0.019-0.416,0.028c-0.314,0.02-0.628,0.042-0.94,0.072c-0.154,0.015-0.306,0.035-0.459,0.052
	c-0.3,0.034-0.6,0.071-0.898,0.114c-0.142,0.021-0.283,0.044-0.424,0.068c-0.18,0.029-0.362,0.053-0.541,0.086l8.169-27.067
	c1.383-4.585,5.531-7.666,10.32-7.666h429.348c4.789,0,8.937,3.08,10.32,7.666l8.169,27.067c-0.179-0.033-0.361-0.057-0.541-0.086
	c-0.141-0.023-0.282-0.047-0.424-0.068c-0.298-0.044-0.597-0.08-0.898-0.114c-0.153-0.017-0.305-0.037-0.459-0.052
	c-0.312-0.03-0.626-0.052-0.94-0.072c-0.139-0.009-0.277-0.021-0.416-0.028c-0.453-0.022-0.907-0.035-1.364-0.035H90.872
	c-4.148,0-7.512,3.363-7.512,7.512c0,4.148,3.363,7.512,7.512,7.512h393.249c0.398,0,0.791,0.024,1.181,0.06
	c0.11,0.01,0.22,0.024,0.33,0.037c0.302,0.036,0.6,0.081,0.895,0.137c0.091,0.017,0.182,0.032,0.273,0.051
	c0.784,0.167,1.543,0.404,2.267,0.707c0.04,0.017,0.079,0.034,0.119,0.051c2.27,0.977,4.205,2.587,5.578,4.61
	c0.013,0.019,0.025,0.039,0.038,0.058c0.2,0.298,0.385,0.606,0.56,0.92c0.032,0.058,0.066,0.116,0.097,0.175
	c0.177,0.331,0.343,0.67,0.491,1.018c0.006,0.014,0.013,0.026,0.018,0.04c0.65,1.536,1.009,3.223,1.009,4.992L496.977,482.815
	L496.977,482.815z"/>
<path d="M441.073,396.412c-19.06,0-34.568,15.507-34.568,34.568c0,19.06,15.507,34.568,34.568,34.568s34.568-15.507,34.568-34.568
	C475.641,411.919,460.133,396.412,441.073,396.412z M441.073,450.524c-10.777,0-19.545-8.768-19.545-19.545
	s8.768-19.545,19.545-19.545s19.545,8.768,19.545,19.545S451.85,450.524,441.073,450.524z"/>
<path d="M362.967,396.412c-19.061,0-34.568,15.507-34.568,34.568c0,19.06,15.507,34.568,34.568,34.568
	c19.06,0,34.568-15.507,34.568-34.568C397.534,411.919,382.027,396.412,362.967,396.412z M362.967,450.524
	c-10.777,0-19.545-8.768-19.545-19.545s8.768-19.545,19.545-19.545s19.545,8.768,19.545,19.545S373.743,450.524,362.967,450.524z"/>
<path d="M284.86,396.412c-19.061,0-34.568,15.507-34.568,34.568c0,19.06,15.507,34.568,34.568,34.568
	c19.06,0,34.568-15.507,34.568-34.568C319.428,411.919,303.921,396.412,284.86,396.412z M284.86,450.524
	c-10.777,0-19.545-8.768-19.545-19.545s8.768-19.545,19.545-19.545s19.545,8.768,19.545,19.545S295.637,450.524,284.86,450.524z"/>
<path d="M187.214,397.599H51.882c-9.856,0-17.875,8.019-17.875,17.875v32.199c0,9.856,8.019,17.875,17.875,17.875h135.332
	c9.856,0,17.875-8.019,17.875-17.875v-32.199C205.089,405.618,197.07,397.599,187.214,397.599z M190.066,447.673
	c0,1.572-1.279,2.852-2.852,2.852H51.882c-1.572,0-2.852-1.279-2.852-2.852v-32.199c0-1.572,1.279-2.852,2.852-2.852h135.332
	c1.572,0,2.852,1.279,2.852,2.852L190.066,447.673L190.066,447.673z"/>
<g>
</g>
<g>
</g>
<g>
</g>
<g>
</g>
<g>
</g>
<g>
</g>
<g>
</g>
<g>
</g>
<g>
</g>
<g>
</g>
<g>
</g>
<g>
</g>
<g>
</g>
<g>
</g>
<g>
</g>
</svg>
